Coordinates
version=1
nRows=16
nColumns=33
inDegrees=yes

Units are S.I. units (second, meters, Newtons, ...)
Angles are in degrees.

endheader
time	ground_thorax_rot_x	ground_thorax_rot_y	ground_thorax_rot_z	ground_thorax_tx	ground_thorax_ty	ground_thorax_tz	clav_prot_r	clav_elev_r	scapula_abduction_r	scapula_elevation_r	scapula_upward_rot_r	scapula_winging_r	shoulder_elv_r	plane_of_elev_r	axial_rot_r	elbow_flexion_r	pro_sup_r	wrist_flex_r	wrist_dev_r	clav_prot_l	clav_elev_l	scapula_abduction_l	scapula_elevation_l	scapula_upward_rot_l	scapula_winging_l	shoulder_elv_l	plane_of_elev_l	axial_rot_l	elbow_flexion_l	pro_sup_l	wrist_flex_l	wrist_dev_l
      2.37000000	     -0.36716106	      2.06115114	      2.22544640	     -0.15564202	      0.98983049	      0.00385256	     -2.92275587	    -10.22710108	     -2.83050552	     -0.03750803	     -5.34507328	      2.21385184	     41.68044481	      3.08451169	      7.69728615	     22.51972382	      0.85244456	    -16.57978272	     15.68463899	      3.15808695	     -9.66319670	     -8.78509962	      0.12802046	     -6.49866201	      0.55888527	     43.72338910	     -1.62943426	     -0.60646536	     29.64902926	     13.01536771	     23.42369097	     14.85283210
      2.38000000	     -0.39893550	      2.36268319	      1.84817971	     -0.15575864	      0.98994127	      0.00394983	     -3.20512985	    -10.14813248	     -3.12088372	     -0.20592092	     -4.76605248	      2.19216730	     41.29613644	      2.37827790	      7.05489541	     23.74606381	      2.05290816	    -15.74393468	     14.83303363	      3.53827242	     -9.62230967	     -9.51899636	      0.16997272	     -6.28206386	      0.85370905	     43.80801971	     -2.09273255	     -0.14053828	     30.60479578	     13.98903203	     22.61601849	     12.07219898
      2.39000000	     -0.45048393	      2.34893003	      1.66444587	     -0.15559372	      0.98933574	      0.00388463	     -3.42043798	     -9.90849743	     -3.51638614	      0.00286435	     -4.74584175	      2.19942392	     41.28737918	      2.25663862	      6.81556718	     24.99952646	      2.04106858	    -15.46919854	     14.80305599	      3.38202300	     -9.30258479	     -9.20242124	     -0.14152357	     -6.34204858	      0.85397264	     43.80464813	     -2.19445824	      0.19810876	     31.93461355	     13.83028744	     22.55073818	     11.66396361
      2.40000000	     -0.51004981	      2.46377231	      1.97909735	     -0.15548154	      0.98922739	      0.00387080	     -3.64419402	     -9.75662833	     -4.01055471	      0.23216038	     -4.97919595	      2.29070200	     41.34757819	      1.38311897	      6.45131315	     26.87016071	      2.50071463	    -14.97625689	     14.45252998	      3.27339439	     -9.21240740	     -8.93091163	     -0.30896489	     -6.56090138	      0.77524339	     43.84260498	     -2.93750283	      0.55221618	     33.44758592	     13.74918794	     22.35896247	     10.73840353
      2.41000000	     -0.57337158	      2.63984583	      1.72343004	     -0.15571313	      0.98955792	      0.00385588	     -3.71446778	    -10.01794319	     -4.11573813	     -0.00166892	     -5.01075344	      2.41154594	     41.69232400	      0.09723242	      5.87998107	     29.23758484	      4.00133899	    -14.31934275	     13.66121417	      3.43569662	     -9.38805740	     -9.20113969	     -0.18064795	     -6.63245302	      0.80347205	     44.31759539	     -3.89746106	      0.64003688	     35.14842405	     13.87739728	     22.04937071	      8.99236066
      2.42000000	     -0.58725661	      2.63485619	      1.36345631	     -0.15566185	      0.98853661	      0.00382853	     -3.97213822	     -9.66306449	     -4.59888969	      0.31255481	     -4.98716118	      2.39484167	     41.78365963	     -0.07825391	      5.67799524	     31.14417744	      3.99286653	    -13.93660336	     13.58477912	      3.21545732	     -8.99770242	     -8.76578246	     -0.55771037	     -6.69710902	      0.78465790	     44.32823093	     -3.97519754	      1.00782346	     36.90240030	     13.62715491	     21.96048122	      8.54056932
      2.43000000	     -0.59811819	      2.81454326	      1.63639955	     -0.15575863	      0.98887023	      0.00372400	     -4.08773077	     -9.81343475	     -4.88615662	      0.28205823	     -5.26861491	      2.54887927	     42.21663771	     -1.90122611	      5.39593466	     34.15286856	      5.34732588	    -13.18511769	     12.87841000	      3.22947373	     -9.13870632	     -8.69027155	     -0.55875347	     -7.01928801	      0.68413261	     44.68118725	     -5.24116787	      0.87598538	     38.83676520	     13.58781180	     21.86330863	      7.27579903
      2.44000000	     -0.62796270	      2.86683393	      1.72136570	     -0.15565959	      0.98832259	      0.00376991	     -4.39328614	     -9.51151298	     -5.51275831	      0.61690387	     -5.42110679	      2.60519052	     42.27235935	     -2.79523958	      5.08756140	     36.71883085	      5.76353331	    -12.61901785	     12.63941292	      2.99117409	     -8.87602298	     -8.17792587	     -0.88294866	     -7.24062259	      0.57530541	     44.72363929	     -5.86156524	      1.17556570	     40.69274054	     13.37686162	     21.80048808	      6.66895855
      2.45000000	     -0.56058335	      2.91969350	      1.73037006	     -0.15568390	      0.98776597	      0.00373654	     -4.65599805	     -9.21552368	     -6.05374316	      0.93342088	     -5.53768025	      2.64300448	     42.51302214	     -3.77996712	      4.93386918	     39.41348838	      6.11940487	    -11.98435415	     12.34762338	      2.79618203	     -8.63354243	     -7.72801016	     -1.20767812	     -7.50551942	      0.48080895	     44.79632504	     -6.54012319	      1.23116068	     42.77596680	     13.13341168	     21.77261828	      6.11358966
      2.46000000	     -0.67029126	      3.01967541	      1.49384049	     -0.15589890	      0.98812455	      0.00377585	     -4.80974439	     -9.51768280	     -6.26426297	      0.62176233	     -5.47806473	      2.78252678	     42.76531496	     -5.57327911	      4.67834707	     42.46129952	      7.44273461	    -10.92629832	     11.70890571	      2.69819888	     -8.77415406	     -7.49609628	     -1.16634135	     -7.72229989	      0.33441815	     45.50179493	     -7.71887738	      1.01261759	     45.06831627	     12.88970373	     21.74435809	      5.40366064
      2.47000000	     -0.59780511	      3.07422196	      1.58960415	     -0.15595438	      0.98740167	      0.00380842	     -5.09746808	     -8.96726629	     -6.86345675	      1.15418795	     -5.54250525	      2.73765409	     42.84821625	     -6.53162074	      4.73749896	     45.22708538	      7.59878319	    -10.21352912	     11.57466618	      2.45092583	     -8.38619713	     -6.94588559	     -1.61774858	     -7.97399455	      0.25034647	     45.47207238	     -8.36830173	      1.01300803	     47.08748707	     12.61421802	     21.73294422	      5.02823035
      2.48000000	     -0.56196605	      3.12515900	      1.66232318	     -0.15611333	      0.98698132	      0.00386043	     -5.34008391	     -8.58776482	     -7.35943667	      1.51995984	     -5.58534506	      2.72924331	     43.02175509	     -7.77765586	      4.93877365	     48.10174598	      7.81971957	     -9.27222299	     11.30906041	      2.22841705	     -8.12141286	     -6.44739482	     -1.95978584	     -8.22795547	      0.14144261	     45.65064913	     -9.29375854	      0.85529715	     49.29585571	     12.31756962	     21.69659584	      4.64627017
      2.49000000	     -0.52687832	      3.15955305	      1.69381114	     -0.15627234	      0.98674192	      0.00390265	     -5.59241762	     -8.27268491	     -7.84070025	      1.79869834	     -5.56298501	      2.72902421	     43.20345120	     -9.13457123	      5.23796503	     50.94460634	      7.98778506	     -8.15489066	     10.97112571	      1.98828843	     -7.89310833	     -5.92381499	     -2.26392110	     -8.47004968	      0.01009042	     45.88138208	    -10.31002433	      0.67076922	     51.54366860	     12.00510192	     21.61127360	      4.28808136
      2.50000000	     -0.51230563	      3.17180468	      1.42571537	     -0.15646983	      0.98697677	      0.00394324	     -5.81783165	     -8.28498243	     -8.09668154	      1.62024195	     -5.17490750	      2.72835639	     43.36569808	    -10.91373184	      5.79831884	     53.72478261	      8.21538385	     -6.28464344	     10.31185137	      1.74688444	     -7.89551405	     -5.45050708	     -2.32188897	     -8.62808110	     -0.15820300	     46.43091699	    -11.57195841	      0.17229927	     53.99319604	     11.62883195	     21.34582125	      3.95931261
      2.51000000	     -0.45693011	      3.15814710	      1.56773125	     -0.15657614	      0.98657786	      0.00410876	     -6.14573646	     -7.71953162	     -8.73494451	      2.10781350	     -5.09241091	      2.67526729	     43.36712566	    -12.10754894	      6.17963624	     56.39515085	      8.06069728	     -5.14554687	      9.99924857	      1.41588784	     -7.46269256	     -4.75182569	     -2.80400713	     -8.84449642	     -0.28233818	     46.44947690	    -12.50129388	      0.09620772	     56.08718859	     11.31827161	     21.16650753	      3.62806091
      2.52000000	     -0.41598624	      3.16394749	      1.66090377	     -0.15679224	      0.98635154	      0.00424955	     -6.39508098	     -7.24995457	     -9.19758330	      2.47494900	     -4.93182413	      2.60839811	     43.51772881	    -13.54811905	      6.97111370	     59.04167590	      7.81047958	     -3.68887988	      9.57188786	      1.12769904	     -7.11307842	     -4.14821487	     -3.19161437	     -9.01577734	     -0.39843427	     46.61637655	    -13.64525001	     -0.21572874	     58.30840962	     11.03459049	     20.90479220	      3.23047112
